<mxfile host="Electron" modified="2024-03-13T10:41:26.692Z" agent="Mozilla/5.0 (Macintosh; Intel Mac OS X 10_15_7) AppleWebKit/537.36 (KHTML, like Gecko) draw.io/24.0.4 Chrome/120.0.6099.109 Electron/28.1.0 Safari/537.36" etag="1pcG75HcgtJ01Nngv6jQ" version="24.0.4" type="device" pages="5">
  <diagram id="prtHgNgQTEPvFCAcTncT" name="DB - Conceptuelle">
    <mxGraphModel dx="1412" dy="779" grid="0" gridSize="10" guides="1" tooltips="1" connect="1" arrows="1" fold="1" page="0" pageScale="1" pageWidth="827" pageHeight="1169" background="none" math="0" shadow="0">
      <root>
        <mxCell id="0" />
        <mxCell id="1" parent="0" />
        <mxCell id="81iNnTIhj-SKxLLTjxNc-101" value="&lt;p style=&quot;line-height: 120%;&quot;&gt;subgroups&lt;/p&gt;" style="swimlane;fontStyle=0;childLayout=stackLayout;horizontal=1;startSize=20;horizontalStack=0;resizeParent=1;resizeParentMax=0;resizeLast=0;collapsible=1;marginBottom=0;whiteSpace=wrap;html=1;fillColor=#dae8fc;strokeColor=#6c8ebf;" parent="1" vertex="1">
          <mxGeometry x="166.5" y="490" width="170" height="60" as="geometry">
            <mxRectangle x="160" y="590" width="80" height="50" as="alternateBounds" />
          </mxGeometry>
        </mxCell>
        <mxCell id="81iNnTIhj-SKxLLTjxNc-102" value="&lt;u&gt;id&lt;/u&gt;&lt;font style=&quot;font-size: 8px;&quot;&gt;&amp;nbsp;&lt;font style=&quot;font-size: 8px;&quot;&gt;unsigned int autoincrement&lt;/font&gt;&lt;/font&gt;" style="text;strokeColor=none;fillColor=none;align=left;verticalAlign=middle;spacingLeft=4;spacingRight=4;overflow=hidden;points=[[0,0.5],[1,0.5]];portConstraint=eastwest;rotatable=0;whiteSpace=wrap;html=1;fontStyle=0;connectable=0;" parent="81iNnTIhj-SKxLLTjxNc-101" vertex="1">
          <mxGeometry y="20" width="170" height="20" as="geometry" />
        </mxCell>
        <mxCell id="81iNnTIhj-SKxLLTjxNc-103" value="name&lt;font style=&quot;font-size: 8px;&quot;&gt;&amp;nbsp;&lt;/font&gt;&lt;font style=&quot;font-size: 8px;&quot;&gt;varchar(32)&lt;/font&gt;" style="text;strokeColor=none;fillColor=none;align=left;verticalAlign=middle;spacingLeft=4;spacingRight=4;overflow=hidden;points=[[0,0.5],[1,0.5]];portConstraint=eastwest;rotatable=0;whiteSpace=wrap;html=1;connectable=0;" parent="81iNnTIhj-SKxLLTjxNc-101" vertex="1">
          <mxGeometry y="40" width="170" height="20" as="geometry" />
        </mxCell>
        <mxCell id="81iNnTIhj-SKxLLTjxNc-56" style="edgeStyle=orthogonalEdgeStyle;rounded=0;orthogonalLoop=1;jettySize=auto;html=1;entryX=0;entryY=0.5;entryDx=0;entryDy=0;exitX=0.25;exitY=1;exitDx=0;exitDy=0;" parent="1" source="81iNnTIhj-SKxLLTjxNc-1" target="81iNnTIhj-SKxLLTjxNc-48" edge="1">
          <mxGeometry relative="1" as="geometry">
            <Array as="points">
              <mxPoint x="207" y="426" />
              <mxPoint x="120" y="426" />
              <mxPoint x="120" y="730" />
            </Array>
            <mxPoint x="205" y="387" as="sourcePoint" />
          </mxGeometry>
        </mxCell>
        <mxCell id="81iNnTIhj-SKxLLTjxNc-57" value="Définis" style="edgeLabel;html=1;align=center;verticalAlign=middle;resizable=0;points=[];" parent="81iNnTIhj-SKxLLTjxNc-56" connectable="0" vertex="1">
          <mxGeometry x="-0.2638" y="-1" relative="1" as="geometry">
            <mxPoint y="182" as="offset" />
          </mxGeometry>
        </mxCell>
        <mxCell id="81iNnTIhj-SKxLLTjxNc-61" value="1" style="edgeLabel;html=1;align=center;verticalAlign=middle;resizable=0;points=[];" parent="81iNnTIhj-SKxLLTjxNc-56" connectable="0" vertex="1">
          <mxGeometry x="-0.8979" y="-1" relative="1" as="geometry">
            <mxPoint x="11" y="-17" as="offset" />
          </mxGeometry>
        </mxCell>
        <mxCell id="81iNnTIhj-SKxLLTjxNc-62" value="0..*" style="edgeLabel;html=1;align=center;verticalAlign=middle;resizable=0;points=[];" parent="81iNnTIhj-SKxLLTjxNc-56" connectable="0" vertex="1">
          <mxGeometry x="0.8961" y="3" relative="1" as="geometry">
            <mxPoint x="8" y="-7" as="offset" />
          </mxGeometry>
        </mxCell>
        <mxCell id="81iNnTIhj-SKxLLTjxNc-118" style="edgeStyle=orthogonalEdgeStyle;rounded=0;orthogonalLoop=1;jettySize=auto;html=1;entryX=0.5;entryY=0;entryDx=0;entryDy=0;" parent="1" source="81iNnTIhj-SKxLLTjxNc-1" target="81iNnTIhj-SKxLLTjxNc-115" edge="1">
          <mxGeometry relative="1" as="geometry">
            <Array as="points">
              <mxPoint x="-85" y="360" />
            </Array>
          </mxGeometry>
        </mxCell>
        <mxCell id="81iNnTIhj-SKxLLTjxNc-119" value="Définis" style="edgeLabel;html=1;align=center;verticalAlign=middle;resizable=0;points=[];" parent="81iNnTIhj-SKxLLTjxNc-118" connectable="0" vertex="1">
          <mxGeometry x="-0.1077" y="2" relative="1" as="geometry">
            <mxPoint x="23" y="-2" as="offset" />
          </mxGeometry>
        </mxCell>
        <mxCell id="81iNnTIhj-SKxLLTjxNc-120" value="0..*" style="edgeLabel;html=1;align=center;verticalAlign=middle;resizable=0;points=[];" parent="81iNnTIhj-SKxLLTjxNc-118" connectable="0" vertex="1">
          <mxGeometry x="0.9165" relative="1" as="geometry">
            <mxPoint x="15" as="offset" />
          </mxGeometry>
        </mxCell>
        <mxCell id="81iNnTIhj-SKxLLTjxNc-121" value="1" style="edgeLabel;html=1;align=center;verticalAlign=middle;resizable=0;points=[];" parent="81iNnTIhj-SKxLLTjxNc-118" connectable="0" vertex="1">
          <mxGeometry x="-0.9429" y="-4" relative="1" as="geometry">
            <mxPoint y="-6" as="offset" />
          </mxGeometry>
        </mxCell>
        <mxCell id="81iNnTIhj-SKxLLTjxNc-140" style="edgeStyle=orthogonalEdgeStyle;rounded=0;orthogonalLoop=1;jettySize=auto;html=1;entryX=0.5;entryY=0;entryDx=0;entryDy=0;exitX=1;exitY=0.25;exitDx=0;exitDy=0;" parent="1" source="81iNnTIhj-SKxLLTjxNc-1" target="81iNnTIhj-SKxLLTjxNc-137" edge="1">
          <mxGeometry relative="1" as="geometry">
            <Array as="points">
              <mxPoint x="884" y="181" />
            </Array>
          </mxGeometry>
        </mxCell>
        <mxCell id="81iNnTIhj-SKxLLTjxNc-141" value="Définis" style="edgeLabel;html=1;align=center;verticalAlign=middle;resizable=0;points=[];" parent="81iNnTIhj-SKxLLTjxNc-140" connectable="0" vertex="1">
          <mxGeometry x="-0.0243" y="2" relative="1" as="geometry">
            <mxPoint as="offset" />
          </mxGeometry>
        </mxCell>
        <mxCell id="81iNnTIhj-SKxLLTjxNc-142" value="1" style="edgeLabel;html=1;align=center;verticalAlign=middle;resizable=0;points=[];" parent="81iNnTIhj-SKxLLTjxNc-140" connectable="0" vertex="1">
          <mxGeometry x="-0.9589" y="2" relative="1" as="geometry">
            <mxPoint x="-5" y="11" as="offset" />
          </mxGeometry>
        </mxCell>
        <mxCell id="81iNnTIhj-SKxLLTjxNc-143" value="0..*" style="edgeLabel;html=1;align=center;verticalAlign=middle;resizable=0;points=[];" parent="81iNnTIhj-SKxLLTjxNc-140" connectable="0" vertex="1">
          <mxGeometry x="0.9589" y="3" relative="1" as="geometry">
            <mxPoint x="12" as="offset" />
          </mxGeometry>
        </mxCell>
        <mxCell id="stAZev-sRb-nGePKIVgT-53" style="edgeStyle=orthogonalEdgeStyle;rounded=0;orthogonalLoop=1;jettySize=auto;html=1;entryX=1;entryY=0.5;entryDx=0;entryDy=0;fontSize=12;startSize=6;endSize=6;" parent="1" source="81iNnTIhj-SKxLLTjxNc-1" target="stAZev-sRb-nGePKIVgT-45" edge="1">
          <mxGeometry relative="1" as="geometry">
            <Array as="points">
              <mxPoint x="46" y="255" />
              <mxPoint x="46" y="176" />
            </Array>
          </mxGeometry>
        </mxCell>
        <mxCell id="stAZev-sRb-nGePKIVgT-54" value="1" style="edgeLabel;html=1;align=center;verticalAlign=middle;resizable=0;points=[];fontSize=12;fontFamily=Helvetica;fontColor=default;labelBackgroundColor=default;" parent="stAZev-sRb-nGePKIVgT-53" vertex="1" connectable="0">
          <mxGeometry x="-0.9095" y="-3" relative="1" as="geometry">
            <mxPoint y="-9" as="offset" />
          </mxGeometry>
        </mxCell>
        <mxCell id="stAZev-sRb-nGePKIVgT-55" value="0..*" style="edgeLabel;html=1;align=center;verticalAlign=middle;resizable=0;points=[];fontSize=12;fontFamily=Helvetica;fontColor=default;labelBackgroundColor=default;" parent="stAZev-sRb-nGePKIVgT-53" vertex="1" connectable="0">
          <mxGeometry x="0.8723" y="-3" relative="1" as="geometry">
            <mxPoint x="4" y="-9" as="offset" />
          </mxGeometry>
        </mxCell>
        <mxCell id="81iNnTIhj-SKxLLTjxNc-1" value="&lt;p style=&quot;line-height: 120%;&quot;&gt;users&lt;/p&gt;" style="swimlane;fontStyle=0;childLayout=stackLayout;horizontal=1;startSize=20;horizontalStack=0;resizeParent=1;resizeParentMax=0;resizeLast=0;collapsible=1;marginBottom=0;whiteSpace=wrap;html=1;shadow=0;fillColor=#f8cecc;strokeColor=#b85450;" parent="1" vertex="1">
          <mxGeometry x="163" y="113" width="177" height="284" as="geometry">
            <mxRectangle x="170" y="200" width="70" height="50" as="alternateBounds" />
          </mxGeometry>
        </mxCell>
        <mxCell id="81iNnTIhj-SKxLLTjxNc-2" value="&lt;u&gt;id&lt;/u&gt;&lt;font style=&quot;font-size: 8px;&quot;&gt;&amp;nbsp;&lt;font style=&quot;font-size: 8px;&quot;&gt;unsigned int autoincrement&lt;/font&gt;&lt;/font&gt;" style="text;strokeColor=none;fillColor=none;align=left;verticalAlign=middle;spacingLeft=4;spacingRight=4;overflow=hidden;points=[[0,0.5],[1,0.5]];portConstraint=eastwest;rotatable=0;whiteSpace=wrap;html=1;fontStyle=0;connectable=0;" parent="81iNnTIhj-SKxLLTjxNc-1" vertex="1">
          <mxGeometry y="20" width="177" height="20" as="geometry" />
        </mxCell>
        <mxCell id="81iNnTIhj-SKxLLTjxNc-4" value="name&lt;font style=&quot;font-size: 8px;&quot;&gt;&amp;nbsp;&lt;/font&gt;&lt;font style=&quot;font-size: 8px;&quot;&gt;varchar(32)&lt;/font&gt;" style="text;strokeColor=none;fillColor=none;align=left;verticalAlign=middle;spacingLeft=4;spacingRight=4;overflow=hidden;points=[[0,0.5],[1,0.5]];portConstraint=eastwest;rotatable=0;whiteSpace=wrap;html=1;connectable=0;" parent="81iNnTIhj-SKxLLTjxNc-1" vertex="1">
          <mxGeometry y="40" width="177" height="20" as="geometry" />
        </mxCell>
        <mxCell id="t93yNj3RX01Zrecp9N8I-18" value="&lt;u&gt;email&lt;/u&gt;&lt;font style=&quot;font-size: 8px;&quot;&gt;&amp;nbsp;&lt;/font&gt;&lt;font style=&quot;font-size: 8px;&quot;&gt;varchar(256)&lt;/font&gt;" style="text;strokeColor=none;fillColor=none;align=left;verticalAlign=middle;spacingLeft=4;spacingRight=4;overflow=hidden;points=[[0,0.5],[1,0.5]];portConstraint=eastwest;rotatable=0;whiteSpace=wrap;html=1;connectable=0;" parent="81iNnTIhj-SKxLLTjxNc-1" vertex="1">
          <mxGeometry y="60" width="177" height="20" as="geometry" />
        </mxCell>
        <mxCell id="t93yNj3RX01Zrecp9N8I-19" value="password&lt;font style=&quot;font-size: 8px;&quot;&gt;&amp;nbsp;&lt;/font&gt;&lt;font style=&quot;font-size: 8px;&quot;&gt;char(x) / binary(x)&lt;/font&gt;" style="text;strokeColor=none;fillColor=none;align=left;verticalAlign=middle;spacingLeft=4;spacingRight=4;overflow=hidden;points=[[0,0.5],[1,0.5]];portConstraint=eastwest;rotatable=0;whiteSpace=wrap;html=1;connectable=0;" parent="81iNnTIhj-SKxLLTjxNc-1" vertex="1">
          <mxGeometry y="80" width="177" height="20" as="geometry" />
        </mxCell>
        <mxCell id="stAZev-sRb-nGePKIVgT-35" value="creation_date&lt;font style=&quot;font-size: 8px;&quot;&gt; datetime&lt;/font&gt;" style="text;strokeColor=none;fillColor=none;align=left;verticalAlign=middle;spacingLeft=4;spacingRight=4;overflow=hidden;points=[[0,0.5],[1,0.5]];portConstraint=eastwest;rotatable=0;whiteSpace=wrap;html=1;connectable=0;" parent="81iNnTIhj-SKxLLTjxNc-1" vertex="1">
          <mxGeometry y="100" width="177" height="20" as="geometry" />
        </mxCell>
        <mxCell id="t93yNj3RX01Zrecp9N8I-10" value="confirm_date&lt;font style=&quot;font-size: 8px;&quot;&gt; datetime&lt;/font&gt;" style="text;strokeColor=none;fillColor=none;align=left;verticalAlign=middle;spacingLeft=4;spacingRight=4;overflow=hidden;points=[[0,0.5],[1,0.5]];portConstraint=eastwest;rotatable=0;whiteSpace=wrap;html=1;connectable=0;" parent="81iNnTIhj-SKxLLTjxNc-1" vertex="1">
          <mxGeometry y="120" width="177" height="20" as="geometry" />
        </mxCell>
        <mxCell id="81iNnTIhj-SKxLLTjxNc-5" value="confirm_action&lt;font style=&quot;font-size: 8px;&quot;&gt;&amp;nbsp;enum(&#39;signup&#39;, &#39;signin&#39;, &#39;delete_account&#39;)&lt;/font&gt;" style="text;strokeColor=none;fillColor=none;align=left;verticalAlign=middle;spacingLeft=4;spacingRight=4;overflow=hidden;points=[[0,0.5],[1,0.5]];portConstraint=eastwest;rotatable=0;whiteSpace=wrap;html=1;connectable=0;" parent="81iNnTIhj-SKxLLTjxNc-1" vertex="1">
          <mxGeometry y="140" width="177" height="32" as="geometry" />
        </mxCell>
        <mxCell id="81iNnTIhj-SKxLLTjxNc-6" value="confirm_token&lt;font style=&quot;font-size: 8px;&quot;&gt;&amp;nbsp;binary(16)&lt;/font&gt;" style="text;strokeColor=none;fillColor=none;align=left;verticalAlign=middle;spacingLeft=4;spacingRight=4;overflow=hidden;points=[[0,0.5],[1,0.5]];portConstraint=eastwest;rotatable=0;whiteSpace=wrap;html=1;connectable=0;" parent="81iNnTIhj-SKxLLTjxNc-1" vertex="1">
          <mxGeometry y="172" width="177" height="20" as="geometry" />
        </mxCell>
        <mxCell id="81iNnTIhj-SKxLLTjxNc-8" value="confirm_code&lt;font style=&quot;font-size: 8px;&quot;&gt;&amp;nbsp;unsigned smallint&lt;/font&gt;" style="text;strokeColor=none;fillColor=none;align=left;verticalAlign=middle;spacingLeft=4;spacingRight=4;overflow=hidden;points=[[0,0.5],[1,0.5]];portConstraint=eastwest;rotatable=0;whiteSpace=wrap;html=1;connectable=0;" parent="81iNnTIhj-SKxLLTjxNc-1" vertex="1">
          <mxGeometry y="192" width="177" height="20" as="geometry" />
        </mxCell>
        <mxCell id="81iNnTIhj-SKxLLTjxNc-9" value="confirm_code_trials&lt;font style=&quot;font-size: 8px;&quot;&gt;&amp;nbsp;unsigned tinyint&lt;/font&gt;" style="text;strokeColor=none;fillColor=none;align=left;verticalAlign=middle;spacingLeft=4;spacingRight=4;overflow=hidden;points=[[0,0.5],[1,0.5]];portConstraint=eastwest;rotatable=0;whiteSpace=wrap;html=1;connectable=0;" parent="81iNnTIhj-SKxLLTjxNc-1" vertex="1">
          <mxGeometry y="212" width="177" height="20" as="geometry" />
        </mxCell>
        <mxCell id="81iNnTIhj-SKxLLTjxNc-11" value="status&lt;span style=&quot;font-size: 8px;&quot;&gt;&amp;nbsp;enum(&#39;unconfirmed&#39;, &#39;normal&#39;, &#39;banned&#39;, &#39;admin&#39;)&lt;/span&gt;" style="text;strokeColor=none;fillColor=none;align=left;verticalAlign=middle;spacingLeft=4;spacingRight=4;overflow=hidden;points=[[0,0.5],[1,0.5]];portConstraint=eastwest;rotatable=0;whiteSpace=wrap;html=1;connectable=0;" parent="81iNnTIhj-SKxLLTjxNc-1" vertex="1">
          <mxGeometry y="232" width="177" height="32" as="geometry" />
        </mxCell>
        <mxCell id="t93yNj3RX01Zrecp9N8I-23" style="edgeStyle=orthogonalEdgeStyle;rounded=0;orthogonalLoop=1;jettySize=auto;html=1;entryX=0;entryY=0.5;entryDx=0;entryDy=0;" parent="81iNnTIhj-SKxLLTjxNc-1" source="81iNnTIhj-SKxLLTjxNc-1" target="t93yNj3RX01Zrecp9N8I-18" edge="1">
          <mxGeometry relative="1" as="geometry">
            <mxPoint x="-109" y="-108" as="targetPoint" />
            <Array as="points">
              <mxPoint x="89" y="-50" />
              <mxPoint x="-78" y="-50" />
              <mxPoint x="-78" y="70" />
            </Array>
          </mxGeometry>
        </mxCell>
        <mxCell id="t93yNj3RX01Zrecp9N8I-24" value="Confirme automatiquement&lt;br&gt;les partages" style="edgeLabel;html=1;align=center;verticalAlign=middle;resizable=0;points=[];" parent="t93yNj3RX01Zrecp9N8I-23" connectable="0" vertex="1">
          <mxGeometry x="-0.2957" relative="1" as="geometry">
            <mxPoint x="6" y="1" as="offset" />
          </mxGeometry>
        </mxCell>
        <mxCell id="t93yNj3RX01Zrecp9N8I-26" value="storage_count_mo&lt;font style=&quot;font-size: 8px;&quot;&gt;&amp;nbsp;unsigned int&lt;/font&gt;" style="text;strokeColor=none;fillColor=none;align=left;verticalAlign=middle;spacingLeft=4;spacingRight=4;overflow=hidden;points=[[0,0.5],[1,0.5]];portConstraint=eastwest;rotatable=0;whiteSpace=wrap;html=1;connectable=0;" parent="81iNnTIhj-SKxLLTjxNc-1" vertex="1">
          <mxGeometry y="264" width="177" height="20" as="geometry" />
        </mxCell>
        <mxCell id="81iNnTIhj-SKxLLTjxNc-12" value="&lt;p style=&quot;line-height: 120%;&quot;&gt;pictures&lt;/p&gt;" style="swimlane;fontStyle=0;childLayout=stackLayout;horizontal=1;startSize=20;horizontalStack=0;resizeParent=1;resizeParentMax=0;resizeLast=0;collapsible=1;marginBottom=0;whiteSpace=wrap;html=1;fillColor=#d5e8d4;strokeColor=#82b366;" parent="1" vertex="1">
          <mxGeometry x="508.98" y="220" width="180" height="380" as="geometry">
            <mxRectangle x="470" y="220" width="80" height="50" as="alternateBounds" />
          </mxGeometry>
        </mxCell>
        <mxCell id="81iNnTIhj-SKxLLTjxNc-13" value="&lt;u&gt;id&lt;/u&gt;&lt;font style=&quot;font-size: 8px;&quot;&gt;&amp;nbsp;&lt;font style=&quot;border-color: var(--border-color); font-size: 8px;&quot;&gt;unsigned bigint autoincrement&lt;/font&gt;&lt;/font&gt;" style="text;strokeColor=none;fillColor=none;align=left;verticalAlign=middle;spacingLeft=4;spacingRight=4;overflow=hidden;points=[[0,0.5],[1,0.5]];portConstraint=eastwest;rotatable=0;whiteSpace=wrap;html=1;fontStyle=0;connectable=0;" parent="81iNnTIhj-SKxLLTjxNc-12" vertex="1">
          <mxGeometry y="20" width="180" height="20" as="geometry" />
        </mxCell>
        <mxCell id="81iNnTIhj-SKxLLTjxNc-30" value="creation_date&lt;font style=&quot;font-size: 8px;&quot;&gt;&amp;nbsp;datetime&lt;/font&gt;" style="text;strokeColor=none;fillColor=none;align=left;verticalAlign=middle;spacingLeft=4;spacingRight=4;overflow=hidden;points=[[0,0.5],[1,0.5]];portConstraint=eastwest;rotatable=0;whiteSpace=wrap;html=1;fontStyle=0;connectable=0;" parent="81iNnTIhj-SKxLLTjxNc-12" vertex="1">
          <mxGeometry y="40" width="180" height="20" as="geometry" />
        </mxCell>
        <mxCell id="81iNnTIhj-SKxLLTjxNc-31" value="edition_date&lt;font style=&quot;font-size: 8px;&quot;&gt;&amp;nbsp;datetime&lt;/font&gt;" style="text;strokeColor=none;fillColor=none;align=left;verticalAlign=middle;spacingLeft=4;spacingRight=4;overflow=hidden;points=[[0,0.5],[1,0.5]];portConstraint=eastwest;rotatable=0;whiteSpace=wrap;html=1;fontStyle=0;connectable=0;" parent="81iNnTIhj-SKxLLTjxNc-12" vertex="1">
          <mxGeometry y="60" width="180" height="20" as="geometry" />
        </mxCell>
        <mxCell id="81iNnTIhj-SKxLLTjxNc-32" value="latitude&lt;font style=&quot;font-size: 8px;&quot;&gt;&amp;nbsp;decimal(8,6)&lt;/font&gt;" style="text;strokeColor=none;fillColor=none;align=left;verticalAlign=middle;spacingLeft=4;spacingRight=4;overflow=hidden;points=[[0,0.5],[1,0.5]];portConstraint=eastwest;rotatable=0;whiteSpace=wrap;html=1;fontStyle=0;connectable=0;" parent="81iNnTIhj-SKxLLTjxNc-12" vertex="1">
          <mxGeometry y="80" width="180" height="20" as="geometry" />
        </mxCell>
        <mxCell id="81iNnTIhj-SKxLLTjxNc-34" value="longitude&lt;font style=&quot;font-size: 8px;&quot;&gt;&amp;nbsp;decimal(9,6)&lt;/font&gt;" style="text;strokeColor=none;fillColor=none;align=left;verticalAlign=middle;spacingLeft=4;spacingRight=4;overflow=hidden;points=[[0,0.5],[1,0.5]];portConstraint=eastwest;rotatable=0;whiteSpace=wrap;html=1;fontStyle=0;connectable=0;" parent="81iNnTIhj-SKxLLTjxNc-12" vertex="1">
          <mxGeometry y="100" width="180" height="20" as="geometry" />
        </mxCell>
        <mxCell id="81iNnTIhj-SKxLLTjxNc-35" value="altitude&lt;font style=&quot;font-size: 8px;&quot;&gt;&amp;nbsp;smallint&lt;/font&gt;" style="text;strokeColor=none;fillColor=none;align=left;verticalAlign=middle;spacingLeft=4;spacingRight=4;overflow=hidden;points=[[0,0.5],[1,0.5]];portConstraint=eastwest;rotatable=0;whiteSpace=wrap;html=1;fontStyle=0;connectable=0;" parent="81iNnTIhj-SKxLLTjxNc-12" vertex="1">
          <mxGeometry y="120" width="180" height="20" as="geometry" />
        </mxCell>
        <mxCell id="81iNnTIhj-SKxLLTjxNc-36" value="orientation&lt;font style=&quot;font-size: 8px;&quot;&gt;&amp;nbsp;enum(&#39;&lt;/font&gt;&lt;span style=&quot;background-color: initial; font-size: 8px;&quot;&gt;Unspecified&#39;, &#39;&lt;/span&gt;&lt;span style=&quot;font-size: 8px; background-color: initial;&quot;&gt;Normal&#39;, &#39;&lt;/span&gt;&lt;span style=&quot;font-size: 8px; background-color: initial;&quot;&gt;HorizontalFlip&#39;, &#39;&lt;/span&gt;&lt;span style=&quot;font-size: 8px; background-color: initial;&quot;&gt;Rotate180&#39;, &#39;&lt;/span&gt;&lt;span style=&quot;font-size: 8px; background-color: initial;&quot;&gt;VerticalFlip&#39;, &#39;&lt;/span&gt;&lt;span style=&quot;font-size: 8px; background-color: initial;&quot;&gt;Rotate90HorizontalFlip&#39;, &#39;&lt;/span&gt;&lt;span style=&quot;font-size: 8px; background-color: initial;&quot;&gt;Rotate90&#39;, &#39;&lt;/span&gt;&lt;span style=&quot;font-size: 8px; background-color: initial;&quot;&gt;Rotate90VerticalFlip&#39;, &#39;&lt;/span&gt;&lt;span style=&quot;background-color: initial; font-size: 8px;&quot;&gt;Rotate270&#39;&lt;/span&gt;&lt;span style=&quot;font-size: 8px;&quot;&gt;)&lt;/span&gt;" style="text;strokeColor=none;fillColor=none;align=left;verticalAlign=middle;spacingLeft=4;spacingRight=4;overflow=hidden;points=[[0,0.5],[1,0.5]];portConstraint=eastwest;rotatable=0;html=1;fontStyle=0;whiteSpace=wrap;connectable=0;" parent="81iNnTIhj-SKxLLTjxNc-12" vertex="1">
          <mxGeometry y="140" width="180" height="60" as="geometry" />
        </mxCell>
        <mxCell id="81iNnTIhj-SKxLLTjxNc-37" value="width&lt;font style=&quot;font-size: 8px;&quot;&gt;&amp;nbsp;unsigned smallint&lt;/font&gt;" style="text;strokeColor=none;fillColor=none;align=left;verticalAlign=middle;spacingLeft=4;spacingRight=4;overflow=hidden;points=[[0,0.5],[1,0.5]];portConstraint=eastwest;rotatable=0;whiteSpace=wrap;html=1;fontStyle=0;connectable=0;" parent="81iNnTIhj-SKxLLTjxNc-12" vertex="1">
          <mxGeometry y="200" width="180" height="20" as="geometry" />
        </mxCell>
        <mxCell id="81iNnTIhj-SKxLLTjxNc-38" value="height&lt;font style=&quot;font-size: 8px;&quot;&gt;&amp;nbsp;unsigned smallint&lt;/font&gt;" style="text;strokeColor=none;fillColor=none;align=left;verticalAlign=middle;spacingLeft=4;spacingRight=4;overflow=hidden;points=[[0,0.5],[1,0.5]];portConstraint=eastwest;rotatable=0;whiteSpace=wrap;html=1;fontStyle=0;connectable=0;" parent="81iNnTIhj-SKxLLTjxNc-12" vertex="1">
          <mxGeometry y="220" width="180" height="20" as="geometry" />
        </mxCell>
        <mxCell id="81iNnTIhj-SKxLLTjxNc-39" value="camera_brand&lt;font style=&quot;font-size: 8px;&quot;&gt;&amp;nbsp;varchar(32)&lt;/font&gt;" style="text;strokeColor=none;fillColor=none;align=left;verticalAlign=middle;spacingLeft=4;spacingRight=4;overflow=hidden;points=[[0,0.5],[1,0.5]];portConstraint=eastwest;rotatable=0;whiteSpace=wrap;html=1;fontStyle=0;connectable=0;" parent="81iNnTIhj-SKxLLTjxNc-12" vertex="1">
          <mxGeometry y="240" width="180" height="20" as="geometry" />
        </mxCell>
        <mxCell id="81iNnTIhj-SKxLLTjxNc-40" value="camera_model&lt;font style=&quot;font-size: 8px;&quot;&gt;&amp;nbsp;varchar(32)&lt;/font&gt;" style="text;strokeColor=none;fillColor=none;align=left;verticalAlign=middle;spacingLeft=4;spacingRight=4;overflow=hidden;points=[[0,0.5],[1,0.5]];portConstraint=eastwest;rotatable=0;whiteSpace=wrap;html=1;fontStyle=0;connectable=0;" parent="81iNnTIhj-SKxLLTjxNc-12" vertex="1">
          <mxGeometry y="260" width="180" height="20" as="geometry" />
        </mxCell>
        <mxCell id="81iNnTIhj-SKxLLTjxNc-42" value="focal_length&lt;font style=&quot;font-size: 8px;&quot;&gt;&amp;nbsp;decimal(6,2) # 10m/0.01mm&lt;/font&gt;" style="text;strokeColor=none;fillColor=none;align=left;verticalAlign=middle;spacingLeft=4;spacingRight=4;overflow=hidden;points=[[0,0.5],[1,0.5]];portConstraint=eastwest;rotatable=0;whiteSpace=wrap;html=1;fontStyle=0;connectable=0;" parent="81iNnTIhj-SKxLLTjxNc-12" vertex="1">
          <mxGeometry y="280" width="180" height="20" as="geometry" />
        </mxCell>
        <mxCell id="81iNnTIhj-SKxLLTjxNc-43" value="exposure_time_num&lt;font style=&quot;font-size: 8px;&quot;&gt;&amp;nbsp;unsigned int&lt;/font&gt;" style="text;strokeColor=none;fillColor=none;align=left;verticalAlign=middle;spacingLeft=4;spacingRight=4;overflow=hidden;points=[[0,0.5],[1,0.5]];portConstraint=eastwest;rotatable=0;whiteSpace=wrap;html=1;fontStyle=0;connectable=0;" parent="81iNnTIhj-SKxLLTjxNc-12" vertex="1">
          <mxGeometry y="300" width="180" height="20" as="geometry" />
        </mxCell>
        <mxCell id="81iNnTIhj-SKxLLTjxNc-44" value="exposure_time_den&lt;font style=&quot;font-size: 8px;&quot;&gt;&amp;nbsp;unsigned int&lt;/font&gt;" style="text;strokeColor=none;fillColor=none;align=left;verticalAlign=middle;spacingLeft=4;spacingRight=4;overflow=hidden;points=[[0,0.5],[1,0.5]];portConstraint=eastwest;rotatable=0;whiteSpace=wrap;html=1;fontStyle=0;connectable=0;" parent="81iNnTIhj-SKxLLTjxNc-12" vertex="1">
          <mxGeometry y="320" width="180" height="20" as="geometry" />
        </mxCell>
        <mxCell id="81iNnTIhj-SKxLLTjxNc-45" value="iso_speed&lt;font style=&quot;font-size: 8px;&quot;&gt;&amp;nbsp;unsigned int&lt;/font&gt;" style="text;strokeColor=none;fillColor=none;align=left;verticalAlign=middle;spacingLeft=4;spacingRight=4;overflow=hidden;points=[[0,0.5],[1,0.5]];portConstraint=eastwest;rotatable=0;whiteSpace=wrap;html=1;fontStyle=0;connectable=0;" parent="81iNnTIhj-SKxLLTjxNc-12" vertex="1">
          <mxGeometry y="340" width="180" height="20" as="geometry" />
        </mxCell>
        <mxCell id="81iNnTIhj-SKxLLTjxNc-46" value="f_number&lt;font style=&quot;font-size: 8px;&quot;&gt;&amp;nbsp;decimal(4,1)&lt;/font&gt;" style="text;strokeColor=none;fillColor=none;align=left;verticalAlign=middle;spacingLeft=4;spacingRight=4;overflow=hidden;points=[[0,0.5],[1,0.5]];portConstraint=eastwest;rotatable=0;whiteSpace=wrap;html=1;fontStyle=0;connectable=0;" parent="81iNnTIhj-SKxLLTjxNc-12" vertex="1">
          <mxGeometry y="360" width="180" height="20" as="geometry" />
        </mxCell>
        <mxCell id="81iNnTIhj-SKxLLTjxNc-21" style="edgeStyle=orthogonalEdgeStyle;rounded=0;orthogonalLoop=1;jettySize=auto;html=1;entryX=1;entryY=0.75;entryDx=0;entryDy=0;endArrow=classic;endFill=1;exitX=0;exitY=0.25;exitDx=0;exitDy=0;" parent="1" source="81iNnTIhj-SKxLLTjxNc-12" target="81iNnTIhj-SKxLLTjxNc-1" edge="1">
          <mxGeometry relative="1" as="geometry">
            <Array as="points">
              <mxPoint x="509" y="326" />
            </Array>
            <mxPoint x="487" y="315" as="sourcePoint" />
          </mxGeometry>
        </mxCell>
        <mxCell id="81iNnTIhj-SKxLLTjxNc-24" value="Appartient" style="edgeLabel;html=1;align=center;verticalAlign=middle;resizable=0;points=[];" parent="81iNnTIhj-SKxLLTjxNc-21" connectable="0" vertex="1">
          <mxGeometry x="-0.0857" relative="1" as="geometry">
            <mxPoint x="-8" as="offset" />
          </mxGeometry>
        </mxCell>
        <mxCell id="81iNnTIhj-SKxLLTjxNc-27" value="1" style="edgeLabel;html=1;align=center;verticalAlign=middle;resizable=0;points=[];" parent="81iNnTIhj-SKxLLTjxNc-21" connectable="0" vertex="1">
          <mxGeometry x="0.7853" relative="1" as="geometry">
            <mxPoint x="-4" y="-9" as="offset" />
          </mxGeometry>
        </mxCell>
        <mxCell id="81iNnTIhj-SKxLLTjxNc-28" value="0..*" style="edgeLabel;html=1;align=center;verticalAlign=middle;resizable=0;points=[];" parent="81iNnTIhj-SKxLLTjxNc-21" connectable="0" vertex="1">
          <mxGeometry x="-0.8996" relative="1" as="geometry">
            <mxPoint x="-14" y="-8" as="offset" />
          </mxGeometry>
        </mxCell>
        <mxCell id="81iNnTIhj-SKxLLTjxNc-58" style="edgeStyle=orthogonalEdgeStyle;rounded=0;orthogonalLoop=1;jettySize=auto;html=1;exitX=1;exitY=0.5;exitDx=0;exitDy=0;fontColor=#000000;" parent="1" source="81iNnTIhj-SKxLLTjxNc-102" edge="1">
          <mxGeometry relative="1" as="geometry">
            <mxPoint x="420" y="490" as="sourcePoint" />
            <mxPoint x="509" y="519" as="targetPoint" />
            <Array as="points">
              <mxPoint x="340" y="520" />
              <mxPoint x="340" y="519" />
            </Array>
          </mxGeometry>
        </mxCell>
        <mxCell id="81iNnTIhj-SKxLLTjxNc-59" value="subgroups_pictures" style="edgeLabel;html=1;align=center;verticalAlign=middle;resizable=0;points=[];fontColor=default;" parent="81iNnTIhj-SKxLLTjxNc-58" connectable="0" vertex="1">
          <mxGeometry x="0.2981" relative="1" as="geometry">
            <mxPoint x="-25" as="offset" />
          </mxGeometry>
        </mxCell>
        <mxCell id="81iNnTIhj-SKxLLTjxNc-67" value="0..*" style="edgeLabel;html=1;align=center;verticalAlign=middle;resizable=0;points=[];" parent="81iNnTIhj-SKxLLTjxNc-58" connectable="0" vertex="1">
          <mxGeometry x="-0.9396" relative="1" as="geometry">
            <mxPoint x="7" y="8" as="offset" />
          </mxGeometry>
        </mxCell>
        <mxCell id="81iNnTIhj-SKxLLTjxNc-68" value="0..*" style="edgeLabel;html=1;align=center;verticalAlign=middle;resizable=0;points=[];" parent="81iNnTIhj-SKxLLTjxNc-58" connectable="0" vertex="1">
          <mxGeometry x="0.9272" relative="1" as="geometry">
            <mxPoint x="-14" y="9" as="offset" />
          </mxGeometry>
        </mxCell>
        <mxCell id="81iNnTIhj-SKxLLTjxNc-63" style="edgeStyle=orthogonalEdgeStyle;rounded=0;orthogonalLoop=1;jettySize=auto;html=1;entryX=0.5;entryY=1;entryDx=0;entryDy=0;exitX=0.5;exitY=0;exitDx=0;exitDy=0;" parent="1" source="81iNnTIhj-SKxLLTjxNc-101" target="81iNnTIhj-SKxLLTjxNc-1" edge="1">
          <mxGeometry relative="1" as="geometry">
            <mxPoint x="263" y="472" as="sourcePoint" />
            <mxPoint x="254" y="414" as="targetPoint" />
            <Array as="points">
              <mxPoint x="252" y="490" />
              <mxPoint x="252" y="414" />
              <mxPoint x="252" y="414" />
            </Array>
          </mxGeometry>
        </mxCell>
        <mxCell id="81iNnTIhj-SKxLLTjxNc-66" value="0..*" style="edgeLabel;html=1;align=center;verticalAlign=middle;resizable=0;points=[];" parent="81iNnTIhj-SKxLLTjxNc-63" connectable="0" vertex="1">
          <mxGeometry x="0.9536" y="1" relative="1" as="geometry">
            <mxPoint x="17" y="9" as="offset" />
          </mxGeometry>
        </mxCell>
        <mxCell id="81iNnTIhj-SKxLLTjxNc-64" value="Shared with" style="edgeLabel;html=1;align=center;verticalAlign=middle;resizable=0;points=[];connectable=1;container=0;collapsible=0;labelBorderColor=none;allowArrows=1;fixedWidth=1;" parent="81iNnTIhj-SKxLLTjxNc-63" connectable="0" vertex="1">
          <mxGeometry x="0.0681" relative="1" as="geometry">
            <mxPoint y="3" as="offset" />
          </mxGeometry>
        </mxCell>
        <mxCell id="81iNnTIhj-SKxLLTjxNc-108" value="0..*" style="edgeLabel;html=1;align=center;verticalAlign=middle;resizable=0;points=[];" parent="81iNnTIhj-SKxLLTjxNc-63" connectable="0" vertex="1">
          <mxGeometry x="-0.976" relative="1" as="geometry">
            <mxPoint x="10" y="-10" as="offset" />
          </mxGeometry>
        </mxCell>
        <mxCell id="81iNnTIhj-SKxLLTjxNc-104" style="edgeStyle=orthogonalEdgeStyle;rounded=0;orthogonalLoop=1;jettySize=auto;html=1;entryX=0.5;entryY=1;entryDx=0;entryDy=0;exitX=0.5;exitY=0;exitDx=0;exitDy=0;" parent="1" source="81iNnTIhj-SKxLLTjxNc-47" target="81iNnTIhj-SKxLLTjxNc-101" edge="1">
          <mxGeometry relative="1" as="geometry">
            <Array as="points">
              <mxPoint x="252" y="639" />
              <mxPoint x="252" y="618" />
            </Array>
            <mxPoint x="248" y="662" as="sourcePoint" />
            <mxPoint x="217" y="620" as="targetPoint" />
          </mxGeometry>
        </mxCell>
        <mxCell id="81iNnTIhj-SKxLLTjxNc-105" value="Contient" style="edgeLabel;html=1;align=center;verticalAlign=middle;resizable=0;points=[];" parent="81iNnTIhj-SKxLLTjxNc-104" connectable="0" vertex="1">
          <mxGeometry x="0.005" y="1" relative="1" as="geometry">
            <mxPoint x="3" as="offset" />
          </mxGeometry>
        </mxCell>
        <mxCell id="81iNnTIhj-SKxLLTjxNc-106" value="1" style="edgeLabel;html=1;align=center;verticalAlign=middle;resizable=0;points=[];" parent="81iNnTIhj-SKxLLTjxNc-104" connectable="0" vertex="1">
          <mxGeometry x="-0.9128" relative="1" as="geometry">
            <mxPoint x="8" y="-4" as="offset" />
          </mxGeometry>
        </mxCell>
        <mxCell id="81iNnTIhj-SKxLLTjxNc-107" value="0..*" style="edgeLabel;html=1;align=center;verticalAlign=middle;resizable=0;points=[];" parent="81iNnTIhj-SKxLLTjxNc-104" connectable="0" vertex="1">
          <mxGeometry x="0.83" y="-1" relative="1" as="geometry">
            <mxPoint x="10" y="2" as="offset" />
          </mxGeometry>
        </mxCell>
        <mxCell id="81iNnTIhj-SKxLLTjxNc-47" value="&lt;p style=&quot;line-height: 120%;&quot;&gt;groups&lt;/p&gt;" style="swimlane;fontStyle=0;childLayout=stackLayout;horizontal=1;startSize=20;horizontalStack=0;resizeParent=1;resizeParentMax=0;resizeLast=0;collapsible=1;marginBottom=0;whiteSpace=wrap;html=1;fillColor=#dae8fc;strokeColor=#6c8ebf;" parent="1" vertex="1">
          <mxGeometry x="166.5" y="699" width="170" height="80" as="geometry">
            <mxRectangle x="160" y="590" width="80" height="50" as="alternateBounds" />
          </mxGeometry>
        </mxCell>
        <mxCell id="81iNnTIhj-SKxLLTjxNc-48" value="&lt;u&gt;id&lt;/u&gt;&lt;font style=&quot;font-size: 8px;&quot;&gt;&amp;nbsp;&lt;font style=&quot;font-size: 8px;&quot;&gt;unsigned int autoincrement&lt;/font&gt;&lt;/font&gt;" style="text;strokeColor=none;fillColor=none;align=left;verticalAlign=middle;spacingLeft=4;spacingRight=4;overflow=hidden;points=[[0,0.5],[1,0.5]];portConstraint=eastwest;rotatable=0;whiteSpace=wrap;html=1;fontStyle=0;connectable=0;" parent="81iNnTIhj-SKxLLTjxNc-47" vertex="1">
          <mxGeometry y="20" width="170" height="20" as="geometry" />
        </mxCell>
        <mxCell id="81iNnTIhj-SKxLLTjxNc-49" value="name&lt;font style=&quot;font-size: 8px;&quot;&gt;&amp;nbsp;&lt;/font&gt;&lt;font style=&quot;font-size: 8px;&quot;&gt;varchar(32)&lt;/font&gt;" style="text;strokeColor=none;fillColor=none;align=left;verticalAlign=middle;spacingLeft=4;spacingRight=4;overflow=hidden;points=[[0,0.5],[1,0.5]];portConstraint=eastwest;rotatable=0;whiteSpace=wrap;html=1;connectable=0;" parent="81iNnTIhj-SKxLLTjxNc-47" vertex="1">
          <mxGeometry y="40" width="170" height="20" as="geometry" />
        </mxCell>
        <mxCell id="81iNnTIhj-SKxLLTjxNc-181" value="strategy&lt;font style=&quot;font-size: 8px;&quot;&gt;&amp;nbsp;&lt;/font&gt;&lt;font style=&quot;font-size: 8px;&quot;&gt;blob&lt;/font&gt;" style="text;strokeColor=none;fillColor=none;align=left;verticalAlign=middle;spacingLeft=4;spacingRight=4;overflow=hidden;points=[[0,0.5],[1,0.5]];portConstraint=eastwest;rotatable=0;whiteSpace=wrap;html=1;connectable=0;" parent="81iNnTIhj-SKxLLTjxNc-47" vertex="1">
          <mxGeometry y="60" width="170" height="20" as="geometry" />
        </mxCell>
        <mxCell id="81iNnTIhj-SKxLLTjxNc-72" value="&lt;p style=&quot;line-height: 120%;&quot;&gt;shared_subgroups&lt;/p&gt;" style="swimlane;fontStyle=0;childLayout=stackLayout;horizontal=1;startSize=17;horizontalStack=0;resizeParent=1;resizeParentMax=0;resizeLast=0;collapsible=1;marginBottom=0;whiteSpace=wrap;html=1;fillColor=#f8cecc;strokeColor=#b85450;" parent="1" vertex="1">
          <mxGeometry x="299" y="420" width="130" height="50" as="geometry">
            <mxRectangle x="-140" y="390" width="80" height="50" as="alternateBounds" />
          </mxGeometry>
        </mxCell>
        <mxCell id="81iNnTIhj-SKxLLTjxNc-74" value="type&lt;font style=&quot;font-size: 8px;&quot;&gt;&amp;nbsp;&lt;/font&gt;&lt;font style=&quot;font-size: 8px;&quot;&gt;enum(&#39;unconfirmed&#39;, &#39;sync&#39;, &#39;preserve&#39;)&lt;/font&gt;" style="text;strokeColor=none;fillColor=none;align=left;verticalAlign=middle;spacingLeft=4;spacingRight=4;overflow=hidden;points=[[0,0.5],[1,0.5]];portConstraint=eastwest;rotatable=0;whiteSpace=wrap;html=1;connectable=0;" parent="81iNnTIhj-SKxLLTjxNc-72" vertex="1">
          <mxGeometry y="17" width="130" height="33" as="geometry" />
        </mxCell>
        <mxCell id="81iNnTIhj-SKxLLTjxNc-126" style="edgeStyle=orthogonalEdgeStyle;rounded=0;orthogonalLoop=1;jettySize=auto;html=1;entryX=0;entryY=0.5;entryDx=0;entryDy=0;" parent="1" source="81iNnTIhj-SKxLLTjxNc-115" target="81iNnTIhj-SKxLLTjxNc-49" edge="1">
          <mxGeometry relative="1" as="geometry" />
        </mxCell>
        <mxCell id="81iNnTIhj-SKxLLTjxNc-127" value="Contient" style="edgeLabel;html=1;align=center;verticalAlign=middle;resizable=0;points=[];" parent="81iNnTIhj-SKxLLTjxNc-126" connectable="0" vertex="1">
          <mxGeometry x="0.1209" relative="1" as="geometry">
            <mxPoint x="-1" as="offset" />
          </mxGeometry>
        </mxCell>
        <mxCell id="lnVLyeA6ki6KChJx4h8l-1" value="0..*" style="edgeLabel;html=1;align=center;verticalAlign=middle;resizable=0;points=[];fontSize=12;" parent="81iNnTIhj-SKxLLTjxNc-126" vertex="1" connectable="0">
          <mxGeometry x="0.9101" relative="1" as="geometry">
            <mxPoint as="offset" />
          </mxGeometry>
        </mxCell>
        <mxCell id="lnVLyeA6ki6KChJx4h8l-2" value="0..*" style="edgeLabel;html=1;align=center;verticalAlign=middle;resizable=0;points=[];fontSize=12;" parent="81iNnTIhj-SKxLLTjxNc-126" vertex="1" connectable="0">
          <mxGeometry x="-0.9474" relative="1" as="geometry">
            <mxPoint as="offset" />
          </mxGeometry>
        </mxCell>
        <mxCell id="81iNnTIhj-SKxLLTjxNc-115" value="&lt;p style=&quot;line-height: 120%;&quot;&gt;hierarichies&lt;/p&gt;" style="swimlane;fontStyle=0;childLayout=stackLayout;horizontal=1;startSize=20;horizontalStack=0;resizeParent=1;resizeParentMax=0;resizeLast=0;collapsible=1;marginBottom=0;whiteSpace=wrap;html=1;fillColor=#dae8fc;strokeColor=#6c8ebf;" parent="1" vertex="1">
          <mxGeometry x="-170" y="490" width="170" height="60" as="geometry">
            <mxRectangle x="160" y="590" width="80" height="50" as="alternateBounds" />
          </mxGeometry>
        </mxCell>
        <mxCell id="81iNnTIhj-SKxLLTjxNc-116" value="&lt;u&gt;id&lt;/u&gt;&lt;font style=&quot;font-size: 8px;&quot;&gt;&amp;nbsp;&lt;font style=&quot;font-size: 8px;&quot;&gt;unsigned int autoincrement&lt;/font&gt;&lt;/font&gt;" style="text;strokeColor=none;fillColor=none;align=left;verticalAlign=middle;spacingLeft=4;spacingRight=4;overflow=hidden;points=[[0,0.5],[1,0.5]];portConstraint=eastwest;rotatable=0;whiteSpace=wrap;html=1;fontStyle=0;connectable=0;" parent="81iNnTIhj-SKxLLTjxNc-115" vertex="1">
          <mxGeometry y="20" width="170" height="20" as="geometry" />
        </mxCell>
        <mxCell id="81iNnTIhj-SKxLLTjxNc-117" value="name&lt;font style=&quot;font-size: 8px;&quot;&gt;&amp;nbsp;&lt;/font&gt;&lt;font style=&quot;font-size: 8px;&quot;&gt;varchar(32)&lt;/font&gt;" style="text;strokeColor=none;fillColor=none;align=left;verticalAlign=middle;spacingLeft=4;spacingRight=4;overflow=hidden;points=[[0,0.5],[1,0.5]];portConstraint=eastwest;rotatable=0;whiteSpace=wrap;html=1;connectable=0;" parent="81iNnTIhj-SKxLLTjxNc-115" vertex="1">
          <mxGeometry y="40" width="170" height="20" as="geometry" />
        </mxCell>
        <mxCell id="81iNnTIhj-SKxLLTjxNc-122" style="edgeStyle=orthogonalEdgeStyle;rounded=0;orthogonalLoop=1;jettySize=auto;html=1;entryX=0.25;entryY=0;entryDx=0;entryDy=0;exitX=0;exitY=0.5;exitDx=0;exitDy=0;" parent="1" source="81iNnTIhj-SKxLLTjxNc-8" target="81iNnTIhj-SKxLLTjxNc-115" edge="1">
          <mxGeometry relative="1" as="geometry">
            <Array as="points">
              <mxPoint x="-127" y="294" />
            </Array>
            <mxPoint x="140" y="337" as="sourcePoint" />
          </mxGeometry>
        </mxCell>
        <mxCell id="81iNnTIhj-SKxLLTjxNc-123" value="Définis (Hiérarchie FS)" style="edgeLabel;html=1;align=center;verticalAlign=middle;resizable=0;points=[];" parent="81iNnTIhj-SKxLLTjxNc-122" connectable="0" vertex="1">
          <mxGeometry x="-0.2181" relative="1" as="geometry">
            <mxPoint as="offset" />
          </mxGeometry>
        </mxCell>
        <mxCell id="81iNnTIhj-SKxLLTjxNc-124" value="1" style="edgeLabel;html=1;align=center;verticalAlign=middle;resizable=0;points=[];" parent="81iNnTIhj-SKxLLTjxNc-122" connectable="0" vertex="1">
          <mxGeometry x="0.9269" y="-3" relative="1" as="geometry">
            <mxPoint x="11" as="offset" />
          </mxGeometry>
        </mxCell>
        <mxCell id="81iNnTIhj-SKxLLTjxNc-125" value="1" style="edgeLabel;html=1;align=center;verticalAlign=middle;resizable=0;points=[];" parent="81iNnTIhj-SKxLLTjxNc-122" connectable="0" vertex="1">
          <mxGeometry x="-0.9238" y="-2" relative="1" as="geometry">
            <mxPoint x="-9" y="-13" as="offset" />
          </mxGeometry>
        </mxCell>
        <mxCell id="81iNnTIhj-SKxLLTjxNc-128" value="&lt;p style=&quot;line-height: 120%;&quot;&gt;hierarchy_groups&lt;br&gt;&lt;/p&gt;" style="swimlane;fontStyle=0;childLayout=stackLayout;horizontal=1;startSize=14;horizontalStack=0;resizeParent=1;resizeParentMax=0;resizeLast=0;collapsible=1;marginBottom=0;whiteSpace=wrap;html=1;fillColor=#dae8fc;strokeColor=#6c8ebf;" parent="1" vertex="1">
          <mxGeometry x="-77" y="704" width="170" height="34" as="geometry">
            <mxRectangle x="-140" y="390" width="80" height="50" as="alternateBounds" />
          </mxGeometry>
        </mxCell>
        <mxCell id="81iNnTIhj-SKxLLTjxNc-129" value="parent_subgroup_uid&lt;font style=&quot;font-size: 8px;&quot;&gt;&amp;nbsp;unsigned int&lt;/font&gt;" style="text;strokeColor=none;fillColor=none;align=left;verticalAlign=middle;spacingLeft=4;spacingRight=4;overflow=hidden;points=[[0,0.5],[1,0.5]];portConstraint=eastwest;rotatable=0;whiteSpace=wrap;html=1;connectable=0;" parent="81iNnTIhj-SKxLLTjxNc-128" vertex="1">
          <mxGeometry y="14" width="170" height="20" as="geometry" />
        </mxCell>
        <mxCell id="81iNnTIhj-SKxLLTjxNc-137" value="&lt;p style=&quot;line-height: 120%;&quot;&gt;tag_groups&lt;/p&gt;" style="swimlane;fontStyle=0;childLayout=stackLayout;horizontal=1;startSize=20;horizontalStack=0;resizeParent=1;resizeParentMax=0;resizeLast=0;collapsible=1;marginBottom=0;whiteSpace=wrap;html=1;fillColor=#d5e8d4;strokeColor=#82b366;" parent="1" vertex="1">
          <mxGeometry x="798.98" y="220" width="170" height="100" as="geometry">
            <mxRectangle x="160" y="590" width="80" height="50" as="alternateBounds" />
          </mxGeometry>
        </mxCell>
        <mxCell id="81iNnTIhj-SKxLLTjxNc-138" value="&lt;u&gt;id&lt;/u&gt;&lt;font style=&quot;font-size: 8px;&quot;&gt;&amp;nbsp;&lt;font style=&quot;font-size: 8px;&quot;&gt;unsigned int autoincrement&lt;/font&gt;&lt;/font&gt;" style="text;strokeColor=none;fillColor=none;align=left;verticalAlign=middle;spacingLeft=4;spacingRight=4;overflow=hidden;points=[[0,0.5],[1,0.5]];portConstraint=eastwest;rotatable=0;whiteSpace=wrap;html=1;fontStyle=0;connectable=0;" parent="81iNnTIhj-SKxLLTjxNc-137" vertex="1">
          <mxGeometry y="20" width="170" height="20" as="geometry" />
        </mxCell>
        <mxCell id="81iNnTIhj-SKxLLTjxNc-157" value="name&lt;font style=&quot;font-size: 8px;&quot;&gt;&amp;nbsp;varchar(32)&lt;/font&gt;" style="text;strokeColor=none;fillColor=none;align=left;verticalAlign=middle;spacingLeft=4;spacingRight=4;overflow=hidden;points=[[0,0.5],[1,0.5]];portConstraint=eastwest;rotatable=0;whiteSpace=wrap;html=1;connectable=0;" parent="81iNnTIhj-SKxLLTjxNc-137" vertex="1">
          <mxGeometry y="40" width="170" height="20" as="geometry" />
        </mxCell>
        <mxCell id="81iNnTIhj-SKxLLTjxNc-139" value="is_multiple&lt;font style=&quot;font-size: 8px;&quot;&gt;&amp;nbsp;&lt;/font&gt;&lt;font style=&quot;font-size: 8px;&quot;&gt;boolean&lt;/font&gt;" style="text;strokeColor=none;fillColor=none;align=left;verticalAlign=middle;spacingLeft=4;spacingRight=4;overflow=hidden;points=[[0,0.5],[1,0.5]];portConstraint=eastwest;rotatable=0;whiteSpace=wrap;html=1;connectable=0;" parent="81iNnTIhj-SKxLLTjxNc-137" vertex="1">
          <mxGeometry y="60" width="170" height="20" as="geometry" />
        </mxCell>
        <mxCell id="81iNnTIhj-SKxLLTjxNc-144" value="default_tag_uid&lt;font style=&quot;font-size: 8px;&quot;&gt;&amp;nbsp;&lt;/font&gt;&lt;font style=&quot;font-size: 8px;&quot;&gt;unsigned int&lt;/font&gt;" style="text;strokeColor=none;fillColor=none;align=left;verticalAlign=middle;spacingLeft=4;spacingRight=4;overflow=hidden;points=[[0,0.5],[1,0.5]];portConstraint=eastwest;rotatable=0;whiteSpace=wrap;html=1;connectable=0;" parent="81iNnTIhj-SKxLLTjxNc-137" vertex="1">
          <mxGeometry y="80" width="170" height="20" as="geometry" />
        </mxCell>
        <mxCell id="81iNnTIhj-SKxLLTjxNc-145" value="&lt;p style=&quot;line-height: 120%;&quot;&gt;tags&lt;/p&gt;" style="swimlane;fontStyle=0;childLayout=stackLayout;horizontal=1;startSize=20;horizontalStack=0;resizeParent=1;resizeParentMax=0;resizeLast=0;collapsible=1;marginBottom=0;whiteSpace=wrap;html=1;fillColor=#d5e8d4;strokeColor=#82b366;" parent="1" vertex="1">
          <mxGeometry x="798.98" y="380" width="170" height="80" as="geometry">
            <mxRectangle x="160" y="590" width="80" height="50" as="alternateBounds" />
          </mxGeometry>
        </mxCell>
        <mxCell id="81iNnTIhj-SKxLLTjxNc-146" value="&lt;u&gt;id&lt;/u&gt;&lt;font style=&quot;font-size: 8px;&quot;&gt;&amp;nbsp;&lt;font style=&quot;font-size: 8px;&quot;&gt;unsigned int autoincrement&lt;/font&gt;&lt;/font&gt;" style="text;strokeColor=none;fillColor=none;align=left;verticalAlign=middle;spacingLeft=4;spacingRight=4;overflow=hidden;points=[[0,0.5],[1,0.5]];portConstraint=eastwest;rotatable=0;whiteSpace=wrap;html=1;fontStyle=0;connectable=0;" parent="81iNnTIhj-SKxLLTjxNc-145" vertex="1">
          <mxGeometry y="20" width="170" height="20" as="geometry" />
        </mxCell>
        <mxCell id="81iNnTIhj-SKxLLTjxNc-147" value="name&lt;font style=&quot;font-size: 8px;&quot;&gt;&amp;nbsp;varchar(32)&lt;/font&gt;" style="text;strokeColor=none;fillColor=none;align=left;verticalAlign=middle;spacingLeft=4;spacingRight=4;overflow=hidden;points=[[0,0.5],[1,0.5]];portConstraint=eastwest;rotatable=0;whiteSpace=wrap;html=1;connectable=0;" parent="81iNnTIhj-SKxLLTjxNc-145" vertex="1">
          <mxGeometry y="40" width="170" height="20" as="geometry" />
        </mxCell>
        <mxCell id="81iNnTIhj-SKxLLTjxNc-149" value="color&lt;font style=&quot;font-size: 8px;&quot;&gt;&amp;nbsp;binary(3)&lt;/font&gt;" style="text;strokeColor=none;fillColor=none;align=left;verticalAlign=middle;spacingLeft=4;spacingRight=4;overflow=hidden;points=[[0,0.5],[1,0.5]];portConstraint=eastwest;rotatable=0;whiteSpace=wrap;html=1;connectable=0;" parent="81iNnTIhj-SKxLLTjxNc-145" vertex="1">
          <mxGeometry y="60" width="170" height="20" as="geometry" />
        </mxCell>
        <mxCell id="81iNnTIhj-SKxLLTjxNc-150" style="edgeStyle=orthogonalEdgeStyle;rounded=0;orthogonalLoop=1;jettySize=auto;html=1;entryX=0.5;entryY=1;entryDx=0;entryDy=0;exitX=0.5;exitY=0;exitDx=0;exitDy=0;" parent="1" source="81iNnTIhj-SKxLLTjxNc-145" target="81iNnTIhj-SKxLLTjxNc-137" edge="1">
          <mxGeometry relative="1" as="geometry">
            <mxPoint x="881.98" y="380" as="sourcePoint" />
          </mxGeometry>
        </mxCell>
        <mxCell id="81iNnTIhj-SKxLLTjxNc-151" value="Appartient à" style="edgeLabel;html=1;align=center;verticalAlign=middle;resizable=0;points=[];" parent="81iNnTIhj-SKxLLTjxNc-150" connectable="0" vertex="1">
          <mxGeometry x="-0.1362" y="1" relative="1" as="geometry">
            <mxPoint as="offset" />
          </mxGeometry>
        </mxCell>
        <mxCell id="81iNnTIhj-SKxLLTjxNc-152" value="1" style="edgeLabel;html=1;align=center;verticalAlign=middle;resizable=0;points=[];" parent="81iNnTIhj-SKxLLTjxNc-150" connectable="0" vertex="1">
          <mxGeometry x="0.6128" y="-1" relative="1" as="geometry">
            <mxPoint x="5" y="3" as="offset" />
          </mxGeometry>
        </mxCell>
        <mxCell id="81iNnTIhj-SKxLLTjxNc-153" value="1..*" style="edgeLabel;html=1;align=center;verticalAlign=middle;resizable=0;points=[];" parent="81iNnTIhj-SKxLLTjxNc-150" connectable="0" vertex="1">
          <mxGeometry x="-0.7668" relative="1" as="geometry">
            <mxPoint x="11" y="-2" as="offset" />
          </mxGeometry>
        </mxCell>
        <mxCell id="81iNnTIhj-SKxLLTjxNc-173" style="edgeStyle=orthogonalEdgeStyle;rounded=0;orthogonalLoop=1;jettySize=auto;html=1;entryX=0;entryY=0.5;entryDx=0;entryDy=0;" parent="1" source="81iNnTIhj-SKxLLTjxNc-37" target="81iNnTIhj-SKxLLTjxNc-147" edge="1">
          <mxGeometry relative="1" as="geometry" />
        </mxCell>
        <mxCell id="81iNnTIhj-SKxLLTjxNc-174" value="pictures_tags" style="edgeLabel;html=1;align=center;verticalAlign=middle;resizable=0;points=[];" parent="81iNnTIhj-SKxLLTjxNc-173" connectable="0" vertex="1">
          <mxGeometry x="0.004" y="1" relative="1" as="geometry">
            <mxPoint x="-4" as="offset" />
          </mxGeometry>
        </mxCell>
        <mxCell id="81iNnTIhj-SKxLLTjxNc-175" value="0..*" style="edgeLabel;html=1;align=center;verticalAlign=middle;resizable=0;points=[];" parent="81iNnTIhj-SKxLLTjxNc-173" connectable="0" vertex="1">
          <mxGeometry x="-0.8833" y="1" relative="1" as="geometry">
            <mxPoint x="3" y="-7" as="offset" />
          </mxGeometry>
        </mxCell>
        <mxCell id="81iNnTIhj-SKxLLTjxNc-176" value="0..*" style="edgeLabel;html=1;align=center;verticalAlign=middle;resizable=0;points=[];" parent="81iNnTIhj-SKxLLTjxNc-173" connectable="0" vertex="1">
          <mxGeometry x="0.7022" y="-1" relative="1" as="geometry">
            <mxPoint x="-2" y="-9" as="offset" />
          </mxGeometry>
        </mxCell>
        <mxCell id="stAZev-sRb-nGePKIVgT-45" value="&lt;p style=&quot;line-height: 120%;&quot;&gt;auth_tokens&lt;/p&gt;" style="swimlane;fontStyle=0;childLayout=stackLayout;horizontal=1;startSize=20;horizontalStack=0;resizeParent=1;resizeParentMax=0;resizeLast=0;collapsible=1;marginBottom=0;whiteSpace=wrap;html=1;shadow=0;fillColor=#f8cecc;strokeColor=#b85450;" parent="1" vertex="1">
          <mxGeometry x="-170" y="96" width="177" height="160" as="geometry">
            <mxRectangle x="170" y="200" width="70" height="50" as="alternateBounds" />
          </mxGeometry>
        </mxCell>
        <mxCell id="stAZev-sRb-nGePKIVgT-46" value="&lt;u&gt;user_id&lt;/u&gt;&lt;font style=&quot;font-size: 8px;&quot;&gt;&amp;nbsp;&lt;font style=&quot;font-size: 8px;&quot;&gt;unsigned int autoincrement&lt;/font&gt;&lt;/font&gt;" style="text;strokeColor=none;fillColor=none;align=left;verticalAlign=middle;spacingLeft=4;spacingRight=4;overflow=hidden;points=[[0,0.5],[1,0.5]];portConstraint=eastwest;rotatable=0;whiteSpace=wrap;html=1;fontStyle=0;connectable=0;" parent="stAZev-sRb-nGePKIVgT-45" vertex="1">
          <mxGeometry y="20" width="177" height="20" as="geometry" />
        </mxCell>
        <mxCell id="stAZev-sRb-nGePKIVgT-47" value="&lt;u&gt;auth_token&lt;/u&gt;&lt;font style=&quot;font-size: 8px;&quot;&gt; binary(32)&lt;/font&gt;" style="text;strokeColor=none;fillColor=none;align=left;verticalAlign=middle;spacingLeft=4;spacingRight=4;overflow=hidden;points=[[0,0.5],[1,0.5]];portConstraint=eastwest;rotatable=0;whiteSpace=wrap;html=1;connectable=0;" parent="stAZev-sRb-nGePKIVgT-45" vertex="1">
          <mxGeometry y="40" width="177" height="20" as="geometry" />
        </mxCell>
        <mxCell id="stAZev-sRb-nGePKIVgT-48" value="last_session_id&lt;font style=&quot;font-size: 8px;&quot;&gt;&amp;nbsp;unsigned smallint&lt;/font&gt;" style="text;strokeColor=none;fillColor=none;align=left;verticalAlign=middle;spacingLeft=4;spacingRight=4;overflow=hidden;points=[[0,0.5],[1,0.5]];portConstraint=eastwest;rotatable=0;whiteSpace=wrap;html=1;connectable=0;" parent="stAZev-sRb-nGePKIVgT-45" vertex="1">
          <mxGeometry y="60" width="177" height="20" as="geometry" />
        </mxCell>
        <mxCell id="stAZev-sRb-nGePKIVgT-50" value="creation_date&lt;font style=&quot;font-size: 8px;&quot;&gt; datetime&lt;/font&gt;" style="text;strokeColor=none;fillColor=none;align=left;verticalAlign=middle;spacingLeft=4;spacingRight=4;overflow=hidden;points=[[0,0.5],[1,0.5]];portConstraint=eastwest;rotatable=0;whiteSpace=wrap;html=1;connectable=0;" parent="stAZev-sRb-nGePKIVgT-45" vertex="1">
          <mxGeometry y="80" width="177" height="20" as="geometry" />
        </mxCell>
        <mxCell id="stAZev-sRb-nGePKIVgT-51" value="last_use_date&lt;font style=&quot;font-size: 8px;&quot;&gt; datetime&lt;/font&gt;" style="text;strokeColor=none;fillColor=none;align=left;verticalAlign=middle;spacingLeft=4;spacingRight=4;overflow=hidden;points=[[0,0.5],[1,0.5]];portConstraint=eastwest;rotatable=0;whiteSpace=wrap;html=1;connectable=0;" parent="stAZev-sRb-nGePKIVgT-45" vertex="1">
          <mxGeometry y="100" width="177" height="20" as="geometry" />
        </mxCell>
        <mxCell id="stAZev-sRb-nGePKIVgT-49" value="user_agent&lt;font style=&quot;font-size: 8px;&quot;&gt;&amp;nbsp;&lt;/font&gt;&lt;font style=&quot;font-size: 8px;&quot;&gt;varchar(128)&lt;/font&gt;" style="text;strokeColor=none;fillColor=none;align=left;verticalAlign=middle;spacingLeft=4;spacingRight=4;overflow=hidden;points=[[0,0.5],[1,0.5]];portConstraint=eastwest;rotatable=0;whiteSpace=wrap;html=1;connectable=0;" parent="stAZev-sRb-nGePKIVgT-45" vertex="1">
          <mxGeometry y="120" width="177" height="20" as="geometry" />
        </mxCell>
        <mxCell id="stAZev-sRb-nGePKIVgT-52" value="ip_address&lt;font style=&quot;font-size: 8px;&quot;&gt; VARBINARY(16)&lt;/font&gt;" style="text;strokeColor=none;fillColor=none;align=left;verticalAlign=middle;spacingLeft=4;spacingRight=4;overflow=hidden;points=[[0,0.5],[1,0.5]];portConstraint=eastwest;rotatable=0;whiteSpace=wrap;html=1;connectable=0;" parent="stAZev-sRb-nGePKIVgT-45" vertex="1">
          <mxGeometry y="140" width="177" height="20" as="geometry" />
        </mxCell>
      </root>
    </mxGraphModel>
  </diagram>
  <diagram id="914kOaY9mwwKTZLVVfoy" name="DB - Relationelle">
    <mxGraphModel dx="1367" dy="1132" grid="1" gridSize="10" guides="1" tooltips="1" connect="1" arrows="1" fold="1" page="1" pageScale="1" pageWidth="827" pageHeight="583" math="0" shadow="0">
      <root>
        <mxCell id="0" />
        <mxCell id="1" parent="0" />
      </root>
    </mxGraphModel>
  </diagram>
  <diagram id="4NabNrW-m-fC-tk8mNhY" name="Pages">
    <mxGraphModel dx="1012" dy="779" grid="1" gridSize="10" guides="1" tooltips="1" connect="1" arrows="1" fold="1" page="1" pageScale="1" pageWidth="827" pageHeight="583" math="0" shadow="0">
      <root>
        <mxCell id="0" />
        <mxCell id="1" parent="0" />
        <mxCell id="gYg-AUi2fam0bpOQhcox-7" value="Pages in layouts" style="swimlane;whiteSpace=wrap;html=1;" parent="1" vertex="1">
          <mxGeometry x="130" y="60" width="200" height="460" as="geometry" />
        </mxCell>
        <mxCell id="gYg-AUi2fam0bpOQhcox-1" value="default" style="swimlane;fontStyle=0;childLayout=stackLayout;horizontal=1;startSize=30;horizontalStack=0;resizeParent=1;resizeParentMax=0;resizeLast=0;collapsible=1;marginBottom=0;whiteSpace=wrap;html=1;" parent="gYg-AUi2fam0bpOQhcox-7" vertex="1">
          <mxGeometry x="30" y="40" width="140" height="60" as="geometry" />
        </mxCell>
        <mxCell id="gYg-AUi2fam0bpOQhcox-2" value="/" style="text;strokeColor=none;fillColor=none;align=left;verticalAlign=middle;spacingLeft=4;spacingRight=4;overflow=hidden;points=[[0,0.5],[1,0.5]];portConstraint=eastwest;rotatable=0;whiteSpace=wrap;html=1;" parent="gYg-AUi2fam0bpOQhcox-1" vertex="1">
          <mxGeometry y="30" width="140" height="30" as="geometry" />
        </mxCell>
        <mxCell id="gYg-AUi2fam0bpOQhcox-8" value="noscroll" style="swimlane;fontStyle=0;childLayout=stackLayout;horizontal=1;startSize=30;horizontalStack=0;resizeParent=1;resizeParentMax=0;resizeLast=0;collapsible=1;marginBottom=0;whiteSpace=wrap;html=1;" parent="gYg-AUi2fam0bpOQhcox-7" vertex="1">
          <mxGeometry x="30" y="180" width="140" height="90" as="geometry" />
        </mxCell>
        <mxCell id="gYg-AUi2fam0bpOQhcox-9" value="signin" style="text;strokeColor=none;fillColor=none;align=left;verticalAlign=middle;spacingLeft=4;spacingRight=4;overflow=hidden;points=[[0,0.5],[1,0.5]];portConstraint=eastwest;rotatable=0;whiteSpace=wrap;html=1;" parent="gYg-AUi2fam0bpOQhcox-8" vertex="1">
          <mxGeometry y="30" width="140" height="30" as="geometry" />
        </mxCell>
        <mxCell id="gYg-AUi2fam0bpOQhcox-10" value="signup" style="text;strokeColor=none;fillColor=none;align=left;verticalAlign=middle;spacingLeft=4;spacingRight=4;overflow=hidden;points=[[0,0.5],[1,0.5]];portConstraint=eastwest;rotatable=0;whiteSpace=wrap;html=1;" parent="gYg-AUi2fam0bpOQhcox-8" vertex="1">
          <mxGeometry y="60" width="140" height="30" as="geometry" />
        </mxCell>
        <mxCell id="gYg-AUi2fam0bpOQhcox-12" value="app" style="swimlane;fontStyle=0;childLayout=stackLayout;horizontal=1;startSize=30;horizontalStack=0;resizeParent=1;resizeParentMax=0;resizeLast=0;collapsible=1;marginBottom=0;whiteSpace=wrap;html=1;" parent="gYg-AUi2fam0bpOQhcox-7" vertex="1">
          <mxGeometry x="30" y="320" width="140" height="90" as="geometry" />
        </mxCell>
        <mxCell id="gYg-AUi2fam0bpOQhcox-13" value="/app" style="text;strokeColor=none;fillColor=none;align=left;verticalAlign=middle;spacingLeft=4;spacingRight=4;overflow=hidden;points=[[0,0.5],[1,0.5]];portConstraint=eastwest;rotatable=0;whiteSpace=wrap;html=1;" parent="gYg-AUi2fam0bpOQhcox-12" vertex="1">
          <mxGeometry y="30" width="140" height="30" as="geometry" />
        </mxCell>
        <mxCell id="gYg-AUi2fam0bpOQhcox-14" value="/app/group/[id]" style="text;strokeColor=none;fillColor=none;align=left;verticalAlign=middle;spacingLeft=4;spacingRight=4;overflow=hidden;points=[[0,0.5],[1,0.5]];portConstraint=eastwest;rotatable=0;whiteSpace=wrap;html=1;" parent="gYg-AUi2fam0bpOQhcox-12" vertex="1">
          <mxGeometry y="60" width="140" height="30" as="geometry" />
        </mxCell>
      </root>
    </mxGraphModel>
  </diagram>
  <diagram id="WcDet5wyw9DILYarsGyu" name="Backend">
    <mxGraphModel dx="1412" dy="779" grid="0" gridSize="10" guides="1" tooltips="1" connect="1" arrows="1" fold="1" page="0" pageScale="1" pageWidth="827" pageHeight="1169" math="0" shadow="0">
      <root>
        <mxCell id="0" />
        <mxCell id="1" parent="0" />
        <mxCell id="NBvHDXcATuW5PHMXRzdN-1" value="Front API" style="swimlane;whiteSpace=wrap;html=1;fillColor=#ffe6cc;strokeColor=#d79b00;" parent="1" vertex="1">
          <mxGeometry x="-47" y="10" width="227" height="472" as="geometry" />
        </mxCell>
        <mxCell id="WWdYbt_oolkSk_eyDUwA-2" value="Auth" style="swimlane;fontStyle=0;childLayout=stackLayout;horizontal=1;startSize=30;horizontalStack=0;resizeParent=1;resizeParentMax=0;resizeLast=0;collapsible=1;marginBottom=0;whiteSpace=wrap;html=1;fillColor=#dae8fc;strokeColor=#6c8ebf;" parent="NBvHDXcATuW5PHMXRzdN-1" vertex="1">
          <mxGeometry x="13" y="38" width="200" height="150" as="geometry" />
        </mxCell>
        <mxCell id="WWdYbt_oolkSk_eyDUwA-3" value="signin" style="text;strokeColor=none;fillColor=none;align=left;verticalAlign=middle;spacingLeft=4;spacingRight=4;overflow=hidden;points=[[0,0.5],[1,0.5]];portConstraint=eastwest;rotatable=0;whiteSpace=wrap;html=1;" parent="WWdYbt_oolkSk_eyDUwA-2" vertex="1">
          <mxGeometry y="30" width="200" height="30" as="geometry" />
        </mxCell>
        <mxCell id="WWdYbt_oolkSk_eyDUwA-4" value="signup" style="text;strokeColor=none;fillColor=none;align=left;verticalAlign=middle;spacingLeft=4;spacingRight=4;overflow=hidden;points=[[0,0.5],[1,0.5]];portConstraint=eastwest;rotatable=0;whiteSpace=wrap;html=1;" parent="WWdYbt_oolkSk_eyDUwA-2" vertex="1">
          <mxGeometry y="60" width="200" height="30" as="geometry" />
        </mxCell>
        <mxCell id="WWdYbt_oolkSk_eyDUwA-5" value="confirm/token/&amp;lt;action&amp;gt;?token=" style="text;strokeColor=none;fillColor=none;align=left;verticalAlign=middle;spacingLeft=4;spacingRight=4;overflow=hidden;points=[[0,0.5],[1,0.5]];portConstraint=eastwest;rotatable=0;whiteSpace=wrap;html=1;" parent="WWdYbt_oolkSk_eyDUwA-2" vertex="1">
          <mxGeometry y="90" width="200" height="30" as="geometry" />
        </mxCell>
        <mxCell id="CM_hfWcxjqfe6SGWLZT--1" value="confirm/code/&amp;lt;action&amp;gt;?code=" style="text;strokeColor=none;fillColor=none;align=left;verticalAlign=middle;spacingLeft=4;spacingRight=4;overflow=hidden;points=[[0,0.5],[1,0.5]];portConstraint=eastwest;rotatable=0;whiteSpace=wrap;html=1;" parent="WWdYbt_oolkSk_eyDUwA-2" vertex="1">
          <mxGeometry y="120" width="200" height="30" as="geometry" />
        </mxCell>
        <mxCell id="WWdYbt_oolkSk_eyDUwA-10" value="Groups" style="swimlane;fontStyle=0;childLayout=stackLayout;horizontal=1;startSize=30;horizontalStack=0;resizeParent=1;resizeParentMax=0;resizeLast=0;collapsible=1;marginBottom=0;whiteSpace=wrap;html=1;fillColor=#dae8fc;strokeColor=#6c8ebf;" parent="NBvHDXcATuW5PHMXRzdN-1" vertex="1">
          <mxGeometry x="13" y="199" width="200" height="120" as="geometry" />
        </mxCell>
        <mxCell id="WWdYbt_oolkSk_eyDUwA-11" value="Item 1" style="text;strokeColor=none;fillColor=none;align=left;verticalAlign=middle;spacingLeft=4;spacingRight=4;overflow=hidden;points=[[0,0.5],[1,0.5]];portConstraint=eastwest;rotatable=0;whiteSpace=wrap;html=1;" parent="WWdYbt_oolkSk_eyDUwA-10" vertex="1">
          <mxGeometry y="30" width="200" height="30" as="geometry" />
        </mxCell>
        <mxCell id="WWdYbt_oolkSk_eyDUwA-12" value="Item 2" style="text;strokeColor=none;fillColor=none;align=left;verticalAlign=middle;spacingLeft=4;spacingRight=4;overflow=hidden;points=[[0,0.5],[1,0.5]];portConstraint=eastwest;rotatable=0;whiteSpace=wrap;html=1;" parent="WWdYbt_oolkSk_eyDUwA-10" vertex="1">
          <mxGeometry y="60" width="200" height="30" as="geometry" />
        </mxCell>
        <mxCell id="WWdYbt_oolkSk_eyDUwA-13" value="Item 3" style="text;strokeColor=none;fillColor=none;align=left;verticalAlign=middle;spacingLeft=4;spacingRight=4;overflow=hidden;points=[[0,0.5],[1,0.5]];portConstraint=eastwest;rotatable=0;whiteSpace=wrap;html=1;" parent="WWdYbt_oolkSk_eyDUwA-10" vertex="1">
          <mxGeometry y="90" width="200" height="30" as="geometry" />
        </mxCell>
        <mxCell id="WWdYbt_oolkSk_eyDUwA-14" value="Pictures" style="swimlane;fontStyle=0;childLayout=stackLayout;horizontal=1;startSize=30;horizontalStack=0;resizeParent=1;resizeParentMax=0;resizeLast=0;collapsible=1;marginBottom=0;whiteSpace=wrap;html=1;fillColor=#dae8fc;strokeColor=#6c8ebf;" parent="NBvHDXcATuW5PHMXRzdN-1" vertex="1">
          <mxGeometry x="13" y="335" width="200" height="120" as="geometry" />
        </mxCell>
        <mxCell id="WWdYbt_oolkSk_eyDUwA-15" value="Item 1" style="text;strokeColor=none;fillColor=none;align=left;verticalAlign=middle;spacingLeft=4;spacingRight=4;overflow=hidden;points=[[0,0.5],[1,0.5]];portConstraint=eastwest;rotatable=0;whiteSpace=wrap;html=1;" parent="WWdYbt_oolkSk_eyDUwA-14" vertex="1">
          <mxGeometry y="30" width="200" height="30" as="geometry" />
        </mxCell>
        <mxCell id="WWdYbt_oolkSk_eyDUwA-16" value="Item 2" style="text;strokeColor=none;fillColor=none;align=left;verticalAlign=middle;spacingLeft=4;spacingRight=4;overflow=hidden;points=[[0,0.5],[1,0.5]];portConstraint=eastwest;rotatable=0;whiteSpace=wrap;html=1;" parent="WWdYbt_oolkSk_eyDUwA-14" vertex="1">
          <mxGeometry y="60" width="200" height="30" as="geometry" />
        </mxCell>
        <mxCell id="WWdYbt_oolkSk_eyDUwA-17" value="Item 3" style="text;strokeColor=none;fillColor=none;align=left;verticalAlign=middle;spacingLeft=4;spacingRight=4;overflow=hidden;points=[[0,0.5],[1,0.5]];portConstraint=eastwest;rotatable=0;whiteSpace=wrap;html=1;" parent="WWdYbt_oolkSk_eyDUwA-14" vertex="1">
          <mxGeometry y="90" width="200" height="30" as="geometry" />
        </mxCell>
        <mxCell id="WWdYbt_oolkSk_eyDUwA-1" value="Files API" style="swimlane;whiteSpace=wrap;html=1;fillColor=#ffe6cc;strokeColor=#d79b00;" parent="1" vertex="1">
          <mxGeometry x="195" y="10" width="200" height="335" as="geometry" />
        </mxCell>
        <mxCell id="WWdYbt_oolkSk_eyDUwA-18" value="Auth" style="swimlane;fontStyle=0;childLayout=stackLayout;horizontal=1;startSize=30;horizontalStack=0;resizeParent=1;resizeParentMax=0;resizeLast=0;collapsible=1;marginBottom=0;whiteSpace=wrap;html=1;fillColor=#dae8fc;strokeColor=#6c8ebf;" parent="WWdYbt_oolkSk_eyDUwA-1" vertex="1">
          <mxGeometry x="13" y="38" width="174" height="120" as="geometry" />
        </mxCell>
        <mxCell id="WWdYbt_oolkSk_eyDUwA-19" value="Item 1" style="text;strokeColor=none;fillColor=none;align=left;verticalAlign=middle;spacingLeft=4;spacingRight=4;overflow=hidden;points=[[0,0.5],[1,0.5]];portConstraint=eastwest;rotatable=0;whiteSpace=wrap;html=1;" parent="WWdYbt_oolkSk_eyDUwA-18" vertex="1">
          <mxGeometry y="30" width="174" height="30" as="geometry" />
        </mxCell>
        <mxCell id="WWdYbt_oolkSk_eyDUwA-20" value="Item 2" style="text;strokeColor=none;fillColor=none;align=left;verticalAlign=middle;spacingLeft=4;spacingRight=4;overflow=hidden;points=[[0,0.5],[1,0.5]];portConstraint=eastwest;rotatable=0;whiteSpace=wrap;html=1;" parent="WWdYbt_oolkSk_eyDUwA-18" vertex="1">
          <mxGeometry y="60" width="174" height="30" as="geometry" />
        </mxCell>
        <mxCell id="WWdYbt_oolkSk_eyDUwA-21" value="Item 3" style="text;strokeColor=none;fillColor=none;align=left;verticalAlign=middle;spacingLeft=4;spacingRight=4;overflow=hidden;points=[[0,0.5],[1,0.5]];portConstraint=eastwest;rotatable=0;whiteSpace=wrap;html=1;" parent="WWdYbt_oolkSk_eyDUwA-18" vertex="1">
          <mxGeometry y="90" width="174" height="30" as="geometry" />
        </mxCell>
      </root>
    </mxGraphModel>
  </diagram>
  <diagram id="j5ZZeFqtjp79zt1SZ8fN" name="Request Flow">
    <mxGraphModel dx="1591" dy="916" grid="0" gridSize="10" guides="1" tooltips="1" connect="1" arrows="1" fold="1" page="0" pageScale="1" pageWidth="827" pageHeight="1169" math="0" shadow="0">
      <root>
        <mxCell id="0" />
        <mxCell id="1" parent="0" />
        <mxCell id="UbpkUEUIzsvUsMV6nXRQ-1" value="Login" style="rounded=0;whiteSpace=wrap;html=1;fillColor=#ffe6cc;strokeColor=#d79b00;" vertex="1" parent="1">
          <mxGeometry x="-73" y="236" width="77" height="34" as="geometry" />
        </mxCell>
      </root>
    </mxGraphModel>
  </diagram>
</mxfile>
